<?xml version="1.0" encoding="UTF-8" standalone="no"?>
<!DOCTYPE svg PUBLIC "-//W3C//DTD SVG 1.1//EN" "http://www.w3.org/Graphics/SVG/1.1/DTD/svg11.dtd">
<svg width="100%" height="100%" viewBox="0 0 456 456" version="1.1"
    xmlns="http://www.w3.org/2000/svg"
    xmlns:xlink="http://www.w3.org/1999/xlink" xml:space="preserve"
    xmlns:serif="http://www.serif.com/" style="fill-rule:evenodd;clip-rule:evenodd;stroke-linejoin:round;stroke-miterlimit:2;">
    <!-- Background -->
    <rect width="100%" height="100%" fill="#ffffff" />

    <!-- Title Text -->
    <g transform="translate(228, 100)" text-anchor="middle" alignment-baseline="middle">
        <text x="0" y="0" font-family="Helvetica Neue, Arial, sans-serif" font-size="50" fill="#282c34">
        Holefeeder
        </text>
    </g>

    <!-- Logo -->
    <g transform="translate(228, 228) scale(8) translate(-9, -9)" fill="#282c34">
        <path d="M1 1.5A1.5 1.5 0 0 1 2.5 0h12A1.5 1.5 0 0 1 16 1.5v13a1.5 1.5 0 0 1-1.5 1.5h-12A1.5 1.5 0 0 1 1 14.5V13H.5a.5.5 0 0 1 0-1H1V8.5H.5a.5.5 0 0 1 0-1H1V4H.5a.5.5 0 0 1 0-1H1V1.5zM2.5 1a.5.5 0 0 0-.5.5v13a.5.5 0 0 0 .5.5h12a.5.5 0 0 0 .5-.5v-13a.5.5 0 0 0-.5-.5h-12z" />
        <path d="M13.5 6a.5.5 0 0 1 .5.5v3a.5.5 0 0 1-1 0v-3a.5.5 0 0 1 .5-.5zM4.828 4.464a.5.5 0 0 1 .708 0l1.09 1.09a3.003 3.003 0 0 1 3.476 0l1.09-1.09a.5.5 0 1 1 .707.708l-1.09 1.09c.74 1.037.74 2.44 0 3.476l1.09 1.09a.5.5 0 1 1-.707.708l-1.09-1.09a3.002 3.002 0 0 1-3.476 0l-1.09 1.09a.5.5 0 1 1-.708-.708l1.09-1.09a3.003 3.003 0 0 1 0-3.476l-1.09-1.09a.5.5 0 0 1 0-.708zM6.95 6.586a2 2 0 1 0 2.828 2.828A2 2 0 0 0 6.95 6.586z" />
    </g>

    <!-- Subtitle Text -->
    <g transform="translate(228, 400)" text-anchor="middle" alignment-baseline="middle">
        <!-- Made with (heart outline) by Drifter Apps Inc. -->
        <text x="-80" y="0" font-family="Helvetica Neue, Arial, sans-serif" font-size="16" fill="#282c34">
        Made with
        </text>

        <!-- Heart Outline -->
        <g transform="translate(-39, -12) scale(0.6)">
            <path d="M12 21s-6-5.2-9.9-9.1C.4 9.1.4 5.4 2.5 3.3 4.6 1.2 8.3 1.2 10.4 3.3L12 4.9l1.6-1.6c2.1-2.1 5.8-2.1 7.9 0 2.1 2.1 2.1 5.8 0 7.9C18 15.8 12 21 12 21z" fill="none" stroke="#282c34" stroke-width="2"/>
        </g>

        <!-- Continue with "by Drifter Apps Inc." -->
        <text x="50" y="0" font-family="Helvetica Neue, Arial, sans-serif" font-size="16" fill="#282c34">
        by Drifter Apps Inc.
        </text>
    </g>
</svg>
